<svg id="visual" viewBox="0 0 900 600" width="900" height="600" xmlns="http://www.w3.org/2000/svg" xmlns:xlink="http://www.w3.org/1999/xlink" version="1.1"><path d="M0 199L37.5 192C75 185 150 171 225 160C300 149 375 141 450 143C525 145 600 157 675 165C750 173 825 177 862.5 179L900 181L900 0L862.5 0C825 0 750 0 675 0C600 0 525 0 450 0C375 0 300 0 225 0C150 0 75 0 37.5 0L0 0Z" fill="#d5e2c0"></path><path d="M0 235L37.5 231C75 227 150 219 225 214C300 209 375 207 450 207C525 207 600 209 675 215C750 221 825 231 862.5 236L900 241L900 179L862.5 177C825 175 750 171 675 163C600 155 525 143 450 141C375 139 300 147 225 158C150 169 75 183 37.5 190L0 197Z" fill="#cdddb5"></path><path d="M0 343L37.5 358C75 373 150 403 225 401C300 399 375 365 450 350C525 335 600 339 675 349C750 359 825 375 862.5 383L900 391L900 239L862.5 234C825 229 750 219 675 213C600 207 525 205 450 205C375 205 300 207 225 212C150 217 75 225 37.5 229L0 233Z" fill="#c5d8aa"></path><path d="M0 427L37.5 438C75 449 150 471 225 477C300 483 375 473 450 463C525 453 600 443 675 439C750 435 825 437 862.5 438L900 439L900 389L862.5 381C825 373 750 357 675 347C600 337 525 333 450 348C375 363 300 397 225 399C150 401 75 371 37.5 356L0 341Z" fill="#bbcf9d"></path><path d="M0 541L37.5 543C75 545 150 549 225 552C300 555 375 557 450 551C525 545 600 531 675 529C750 527 825 537 862.5 542L900 547L900 437L862.5 436C825 435 750 433 675 437C600 441 525 451 450 461C375 471 300 481 225 475C150 469 75 447 37.5 436L0 425Z" fill="#aec48e"></path><path d="M0 601L37.5 601C75 601 150 601 225 601C300 601 375 601 450 601C525 601 600 601 675 601C750 601 825 601 862.5 601L900 601L900 545L862.5 540C825 535 750 525 675 527C600 529 525 543 450 549C375 555 300 553 225 550C150 547 75 543 37.5 541L0 539Z" fill="#a2b880"></path></svg>