<svg id="visual" viewBox="0 0 900 600" width="900" height="600" xmlns="http://www.w3.org/2000/svg" xmlns:xlink="http://www.w3.org/1999/xlink" version="1.1"><rect x="0" y="0" width="900" height="600" fill="#c1d5a4"></rect><path d="M0 436L21.5 447.8C43 459.7 86 483.3 128.8 497.8C171.7 512.3 214.3 517.7 257.2 518.2C300 518.7 343 514.3 385.8 497.5C428.7 480.7 471.3 451.3 514.2 441.2C557 431 600 440 642.8 454.3C685.7 468.7 728.3 488.3 771.2 488C814 487.7 857 467.3 878.5 457.2L900 447L900 601L878.5 601C857 601 814 601 771.2 601C728.3 601 685.7 601 642.8 601C600 601 557 601 514.2 601C471.3 601 428.7 601 385.8 601C343 601 300 601 257.2 601C214.3 601 171.7 601 128.8 601C86 601 43 601 21.5 601L0 601Z" fill="#e4aec5" stroke-linecap="round" stroke-linejoin="miter"></path></svg>