<svg id="visual" viewBox="0 0 900 600" width="900" height="600" xmlns="http://www.w3.org/2000/svg" xmlns:xlink="http://www.w3.org/1999/xlink" version="1.1"><rect x="0" y="0" width="900" height="600" fill="#c1d5a4"></rect><path d="M0 472L13.7 457.3C27.3 442.7 54.7 413.3 82 414.5C109.3 415.7 136.7 447.3 163.8 463.7C191 480 218 481 245.2 488.3C272.3 495.7 299.7 509.3 327 515.7C354.3 522 381.7 521 409 511.8C436.3 502.7 463.7 485.3 491 475.7C518.3 466 545.7 464 573 471.2C600.3 478.3 627.7 494.7 654.8 480C682 465.3 709 419.7 736.2 403.3C763.3 387 790.7 400 818 403.3C845.3 406.7 872.7 400.3 886.3 397.2L900 394L900 601L886.3 601C872.7 601 845.3 601 818 601C790.7 601 763.3 601 736.2 601C709 601 682 601 654.8 601C627.7 601 600.3 601 573 601C545.7 601 518.3 601 491 601C463.7 601 436.3 601 409 601C381.7 601 354.3 601 327 601C299.7 601 272.3 601 245.2 601C218 601 191 601 163.8 601C136.7 601 109.3 601 82 601C54.7 601 27.3 601 13.7 601L0 601Z" fill="#ffd07f" stroke-linecap="round" stroke-linejoin="miter"></path></svg>