<svg id="visual" viewBox="0 0 900 600" width="900" height="600" xmlns="http://www.w3.org/2000/svg" xmlns:xlink="http://www.w3.org/1999/xlink" version="1.1"><rect x="0" y="0" width="900" height="600" fill="#FFE69A"></rect><path d="M0 210L15 220C30 230 60 250 90 226.2C120 202.3 150 134.7 180 105C210 75.3 240 83.7 270 110C300 136.3 330 180.7 360 175C390 169.3 420 113.7 450 93C480 72.3 510 86.7 540 104.3C570 122 600 143 630 163.2C660 183.3 690 202.7 720 218.8C750 235 780 248 810 249.8C840 251.7 870 242.3 885 237.7L900 233L900 0L885 0C870 0 840 0 810 0C780 0 750 0 720 0C690 0 660 0 630 0C600 0 570 0 540 0C510 0 480 0 450 0C420 0 390 0 360 0C330 0 300 0 270 0C240 0 210 0 180 0C150 0 120 0 90 0C60 0 30 0 15 0L0 0Z" fill="#afb4ff" stroke-linecap="round" stroke-linejoin="miter"></path></svg>