<svg id="visual" viewBox="0 0 900 600" width="900" height="600" xmlns="http://www.w3.org/2000/svg" xmlns:xlink="http://www.w3.org/1999/xlink" version="1.1"><rect x="0" y="0" width="900" height="600" fill="#FFE69A"></rect><path d="M0 126L15 132C30 138 60 150 90 135.7C120 121.3 150 80.7 180 62.8C210 45 240 50 270 65.8C300 81.7 330 108.3 360 105C390 101.7 420 68.3 450 55.8C480 43.3 510 51.7 540 62.2C570 72.7 600 85.3 630 97.5C660 109.7 690 121.3 720 131C750 140.7 780 148.3 810 149.3C840 150.3 870 144.7 885 141.8L900 139L900 0L885 0C870 0 840 0 810 0C780 0 750 0 720 0C690 0 660 0 630 0C600 0 570 0 540 0C510 0 480 0 450 0C420 0 390 0 360 0C330 0 300 0 270 0C240 0 210 0 180 0C150 0 120 0 90 0C60 0 30 0 15 0L0 0Z" fill="#afb4ff" stroke-linecap="round" stroke-linejoin="miter"></path></svg>