<svg id="visual" viewBox="0 0 900 600" width="900" height="600" xmlns="http://www.w3.org/2000/svg" xmlns:xlink="http://www.w3.org/1999/xlink" version="1.1"><rect x="0" y="0" width="900" height="600" fill="#ffe69a"></rect><path d="M0 82L16.7 75.7C33.3 69.3 66.7 56.7 100 52.2C133.3 47.7 166.7 51.3 200 61.5C233.3 71.7 266.7 88.3 300 100.7C333.3 113 366.7 121 400 115C433.3 109 466.7 89 500 74.5C533.3 60 566.7 51 600 48.5C633.3 46 666.7 50 700 58C733.3 66 766.7 78 800 90.2C833.3 102.3 866.7 114.7 883.3 120.8L900 127L900 0L883.3 0C866.7 0 833.3 0 800 0C766.7 0 733.3 0 700 0C666.7 0 633.3 0 600 0C566.7 0 533.3 0 500 0C466.7 0 433.3 0 400 0C366.7 0 333.3 0 300 0C266.7 0 233.3 0 200 0C166.7 0 133.3 0 100 0C66.7 0 33.3 0 16.7 0L0 0Z" fill="#afb4ff" stroke-linecap="round" stroke-linejoin="miter"></path></svg>