<svg id="visual" viewBox="0 0 900 600" width="900" height="600" xmlns="http://www.w3.org/2000/svg" xmlns:xlink="http://www.w3.org/1999/xlink" version="1.1"><rect x="0" y="0" width="900" height="600" fill="#9ED2C6"></rect><path d="M0 346L16.7 352.5C33.3 359 66.7 372 100 380.2C133.3 388.3 166.7 391.7 200 395.8C233.3 400 266.7 405 300 410.5C333.3 416 366.7 422 400 418.8C433.3 415.7 466.7 403.3 500 393.2C533.3 383 566.7 375 600 371.7C633.3 368.3 666.7 369.7 700 366.3C733.3 363 766.7 355 800 355C833.3 355 866.7 363 883.3 367L900 371L900 601L883.3 601C866.7 601 833.3 601 800 601C766.7 601 733.3 601 700 601C666.7 601 633.3 601 600 601C566.7 601 533.3 601 500 601C466.7 601 433.3 601 400 601C366.7 601 333.3 601 300 601C266.7 601 233.3 601 200 601C166.7 601 133.3 601 100 601C66.7 601 33.3 601 16.7 601L0 601Z" fill="#c7f2a4"></path><path d="M0 456L16.7 454.5C33.3 453 66.7 450 100 440.8C133.3 431.7 166.7 416.3 200 420.2C233.3 424 266.7 447 300 456.2C333.3 465.3 366.7 460.7 400 457.7C433.3 454.7 466.7 453.3 500 444C533.3 434.7 566.7 417.3 600 421C633.3 424.7 666.7 449.3 700 455.7C733.3 462 766.7 450 800 447.5C833.3 445 866.7 452 883.3 455.5L900 459L900 601L883.3 601C866.7 601 833.3 601 800 601C766.7 601 733.3 601 700 601C666.7 601 633.3 601 600 601C566.7 601 533.3 601 500 601C466.7 601 433.3 601 400 601C366.7 601 333.3 601 300 601C266.7 601 233.3 601 200 601C166.7 601 133.3 601 100 601C66.7 601 33.3 601 16.7 601L0 601Z" fill="#c6e8a4"></path><path d="M0 464L16.7 472.8C33.3 481.7 66.7 499.3 100 500.7C133.3 502 166.7 487 200 480.5C233.3 474 266.7 476 300 481.5C333.3 487 366.7 496 400 496.8C433.3 497.7 466.7 490.3 500 489.2C533.3 488 566.7 493 600 488.2C633.3 483.3 666.7 468.7 700 467.3C733.3 466 766.7 478 800 485.5C833.3 493 866.7 496 883.3 497.5L900 499L900 601L883.3 601C866.7 601 833.3 601 800 601C766.7 601 733.3 601 700 601C666.7 601 633.3 601 600 601C566.7 601 533.3 601 500 601C466.7 601 433.3 601 400 601C366.7 601 333.3 601 300 601C266.7 601 233.3 601 200 601C166.7 601 133.3 601 100 601C66.7 601 33.3 601 16.7 601L0 601Z" fill="#c4dea4"></path><path d="M0 549L16.7 548.8C33.3 548.7 66.7 548.3 100 543.8C133.3 539.3 166.7 530.7 200 529.8C233.3 529 266.7 536 300 538.2C333.3 540.3 366.7 537.7 400 538.5C433.3 539.3 466.7 543.7 500 549C533.3 554.3 566.7 560.7 600 555.3C633.3 550 666.7 533 700 532.5C733.3 532 766.7 548 800 547.7C833.3 547.3 866.7 530.7 883.3 522.3L900 514L900 601L883.3 601C866.7 601 833.3 601 800 601C766.7 601 733.3 601 700 601C666.7 601 633.3 601 600 601C566.7 601 533.3 601 500 601C466.7 601 433.3 601 400 601C366.7 601 333.3 601 300 601C266.7 601 233.3 601 200 601C166.7 601 133.3 601 100 601C66.7 601 33.3 601 16.7 601L0 601Z" fill="#c1d5a4"></path></svg>