<svg id="visual" viewBox="0 0 900 600" width="900" height="600" xmlns="http://www.w3.org/2000/svg" xmlns:xlink="http://www.w3.org/1999/xlink" version="1.1"><rect x="0" y="0" width="900" height="600" fill="#9ED2C6"></rect><path d="M0 381L21.5 386.2C43 391.3 86 401.7 128.8 402.2C171.7 402.7 214.3 393.3 257.2 407C300 420.7 343 457.3 385.8 461C428.7 464.7 471.3 435.3 514.2 437.3C557 439.3 600 472.7 642.8 480.3C685.7 488 728.3 470 771.2 455.7C814 441.3 857 430.7 878.5 425.3L900 420L900 601L878.5 601C857 601 814 601 771.2 601C728.3 601 685.7 601 642.8 601C600 601 557 601 514.2 601C471.3 601 428.7 601 385.8 601C343 601 300 601 257.2 601C214.3 601 171.7 601 128.8 601C86 601 43 601 21.5 601L0 601Z" fill="#c1d5a4" stroke-linecap="round" stroke-linejoin="miter"></path></svg>