<svg id="visual" viewBox="0 0 900 600" width="900" height="600" xmlns="http://www.w3.org/2000/svg" xmlns:xlink="http://www.w3.org/1999/xlink" version="1.1"><rect x="0" y="0" width="900" height="600" fill="#ffd07f"></rect><path d="M0 481L37.5 465.8C75 450.7 150 420.3 225 402.5C300 384.7 375 379.3 450 385.8C525 392.3 600 410.7 675 425.2C750 439.7 825 450.3 862.5 455.7L900 461L900 601L862.5 601C825 601 750 601 675 601C600 601 525 601 450 601C375 601 300 601 225 601C150 601 75 601 37.5 601L0 601Z" fill="#afb4ff" stroke-linecap="round" stroke-linejoin="miter"></path></svg>