<svg id="visual" viewBox="0 0 900 600" width="900" height="600" xmlns="http://www.w3.org/2000/svg" xmlns:xlink="http://www.w3.org/1999/xlink" version="1.1"><rect x="0" y="0" width="900" height="600" fill="#ffd07f"></rect><path d="M0 482L25 489.5C50 497 100 512 150 526.8C200 541.7 250 556.3 300 546.3C350 536.3 400 501.7 450 483.5C500 465.3 550 463.7 600 474.8C650 486 700 510 750 514.2C800 518.3 850 502.7 875 494.8L900 487L900 601L875 601C850 601 800 601 750 601C700 601 650 601 600 601C550 601 500 601 450 601C400 601 350 601 300 601C250 601 200 601 150 601C100 601 50 601 25 601L0 601Z" fill="#afb4ff" stroke-linecap="round" stroke-linejoin="miter"></path></svg>