<svg id="visual" viewBox="0 0 900 600" width="900" height="600" xmlns="http://www.w3.org/2000/svg" xmlns:xlink="http://www.w3.org/1999/xlink" version="1.1"><rect x="0" y="0" width="900" height="600" fill="#ffd07f"></rect><path d="M0 508L15 506.7C30 505.3 60 502.7 90 510.3C120 518 150 536 180 536.8C210 537.7 240 521.3 270 514.2C300 507 330 509 360 504.5C390 500 420 489 450 481.2C480 473.3 510 468.7 540 477.8C570 487 600 510 630 513C660 516 690 499 720 495.3C750 491.7 780 501.3 810 509.2C840 517 870 523 885 526L900 529L900 601L885 601C870 601 840 601 810 601C780 601 750 601 720 601C690 601 660 601 630 601C600 601 570 601 540 601C510 601 480 601 450 601C420 601 390 601 360 601C330 601 300 601 270 601C240 601 210 601 180 601C150 601 120 601 90 601C60 601 30 601 15 601L0 601Z" fill="#afb4ff" stroke-linecap="round" stroke-linejoin="miter"></path></svg>