<svg id="visual" viewBox="0 0 900 600" width="900" height="600" xmlns="http://www.w3.org/2000/svg" xmlns:xlink="http://www.w3.org/1999/xlink" version="1.1"><rect x="0" y="0" width="900" height="600" fill="#e4aec5"></rect><path d="M0 506L21.5 512.3C43 518.7 86 531.3 128.8 525.5C171.7 519.7 214.3 495.3 257.2 482.2C300 469 343 467 385.8 480.7C428.7 494.3 471.3 523.7 514.2 539.5C557 555.3 600 557.7 642.8 550.2C685.7 542.7 728.3 525.3 771.2 507C814 488.7 857 469.3 878.5 459.7L900 450L900 601L878.5 601C857 601 814 601 771.2 601C728.3 601 685.7 601 642.8 601C600 601 557 601 514.2 601C471.3 601 428.7 601 385.8 601C343 601 300 601 257.2 601C214.3 601 171.7 601 128.8 601C86 601 43 601 21.5 601L0 601Z" fill="#ffd07f" stroke-linecap="round" stroke-linejoin="miter"></path></svg>