<svg id="visual" viewBox="0 0 900 600" width="900" height="600" xmlns="http://www.w3.org/2000/svg" xmlns:xlink="http://www.w3.org/1999/xlink" version="1.1"><rect x="0" y="0" width="900" height="600" fill="#afb4ff"></rect><path d="M0 461L25 459.3C50 457.7 100 454.3 150 471.2C200 488 250 525 300 542.7C350 560.3 400 558.7 450 544.7C500 530.7 550 504.3 600 503.5C650 502.7 700 527.3 750 537C800 546.7 850 541.3 875 538.7L900 536L900 601L875 601C850 601 800 601 750 601C700 601 650 601 600 601C550 601 500 601 450 601C400 601 350 601 300 601C250 601 200 601 150 601C100 601 50 601 25 601L0 601Z" fill="#ffe69a" stroke-linecap="round" stroke-linejoin="miter"></path></svg>