<svg id="visual" viewBox="0 0 900 600" width="900" height="600" xmlns="http://www.w3.org/2000/svg" xmlns:xlink="http://www.w3.org/1999/xlink" version="1.1"><g transform="translate(448.5642314715205 283.91543344338186)"><path d="M191.1 -231.8C250.5 -219.8 303.6 -167.9 326.5 -104.4C349.4 -41 342.1 33.9 304.6 83.4C267.1 132.9 199.4 157.1 143.6 184.8C87.8 212.5 43.9 243.7 -10.5 258.2C-64.9 272.6 -129.7 270.2 -186.9 242.9C-244.1 215.7 -293.7 163.6 -318.4 100.5C-343 37.3 -342.7 -37 -317.7 -99.9C-292.7 -162.9 -243 -214.5 -186 -227.2C-128.9 -239.9 -64.5 -213.7 0.7 -214.7C65.8 -215.6 131.7 -243.7 191.1 -231.8" fill="#fad9e6"></path></g></svg>